<?xml version="1.0" encoding="UTF-8"?>
<!DOCTYPE svg PUBLIC "-//W3C//DTD SVG 1.1//EN" "http://www.w3.org/Graphics/SVG/1.1/DTD/svg11.dtd">
<!-- Creator: CorelDRAW X7 -->
<svg xmlns="http://www.w3.org/2000/svg" xml:space="preserve" width="27.0932mm" height="27.178mm" version="1.1" style="shape-rendering:geometricPrecision; text-rendering:geometricPrecision; image-rendering:optimizeQuality; fill-rule:evenodd; clip-rule:evenodd"
viewBox="0 0 476 477"
 xmlns:xlink="http://www.w3.org/1999/xlink">
 <defs>
  <style type="text/css">
   <![CDATA[
    .fil1 {fill:none}
    .fil0 {fill:white}
   ]]>
  </style>
 </defs>
 <g id="Layer_x0020_1">
  <metadata id="CorelCorpID_0Corel-Layer"/>
  <g id="_2026834854496">
   <path class="fil0" d="M183 176c0,23 8,42 19,59 4,6 8,9 11,14 -8,9 -12,13 -25,17 -47,16 -76,11 -76,66 0,21 17,16 45,21 14,2 101,4 116,2 10,-1 47,-2 69,-5 22,-4 22,-4 22,-24 0,-53 -62,-48 -93,-65 -7,-4 -8,-5 -12,-11 10,-15 32,-28 32,-73 0,-27 -24,-55 -50,-55 -18,0 -29,3 -43,17 -8,8 -15,22 -15,38z"/>
   <path class="fil0" d="M295 159c0,16 7,31 -8,60 -11,23 6,18 9,33 -4,7 -7,5 -11,11l56 17c17,9 26,24 26,49 23,0 20,-1 39,-5 0,-10 11,-41 -28,-52 -9,-2 -17,-5 -26,-8 -13,-5 -16,-5 -20,-14 6,-9 23,-26 23,-51 0,-25 -25,-56 -60,-39z"/>
   <path class="fil0" d="M121 192c0,41 18,47 21,59 -8,11 -27,15 -43,19 -32,8 -31,25 -31,47 0,13 30,8 39,12 0,-41 22,-52 53,-59 11,-3 19,-6 29,-8l0 -4c-5,-1 -6,-2 -10,-6 0,0 0,-1 -1,-1 3,-4 5,-5 8,-10l8 -12c-8,-12 -15,-35 -15,-52 0,-5 3,-14 3,-20 -6,-1 -12,-5 -20,-5 -19,0 -41,19 -41,39z"/>
  </g>
  <polygon class="fil1" points="0,0 476,0 476,477 0,477 "/>
 </g>
</svg>
