<?xml version="1.0" encoding="UTF-8"?>
<!DOCTYPE svg PUBLIC "-//W3C//DTD SVG 1.1//EN" "http://www.w3.org/Graphics/SVG/1.1/DTD/svg11.dtd">
<!-- Creator: CorelDRAW X7 -->
<svg xmlns="http://www.w3.org/2000/svg" xml:space="preserve" width="27.0932mm" height="27.178mm" version="1.1" style="shape-rendering:geometricPrecision; text-rendering:geometricPrecision; image-rendering:optimizeQuality; fill-rule:evenodd; clip-rule:evenodd"
viewBox="0 0 2374 2381"
 xmlns:xlink="http://www.w3.org/1999/xlink">
 <defs>
  <style type="text/css">
   <![CDATA[
    .fil1 {fill:none}
    .fil0 {fill:white}
   ]]>
  </style>
 </defs>
 <g id="Layer_x0020_1">
  <metadata id="CorelCorpID_0Corel-Layer"/>
  <path class="fil0" d="M337 997l849 -395 849 395 -99 47 -535 -229 -90 118 448 193 -574 267 -849 -396zm1474 105l-433 -187 37 -49 470 201 0 401 -39 -49 -36 49 0 -366zm-102 459l0 74c-314,184 -654,200 -1027,0l0 -74c373,200 713,184 1027,0zm0 -365l0 317 -21 12c-327,191 -654,178 -986,-1l-20 -11 0 -309 505 235 522 -243z"/>
  <polygon class="fil1" points="0,0 2374,0 2374,2381 0,2381 "/>
 </g>
</svg>
