<?xml version="1.0" encoding="UTF-8"?>
<!DOCTYPE svg PUBLIC "-//W3C//DTD SVG 1.1//EN" "http://www.w3.org/Graphics/SVG/1.1/DTD/svg11.dtd">
<!-- Creator: CorelDRAW X7 -->
<svg xmlns="http://www.w3.org/2000/svg" xml:space="preserve" width="27.0932mm" height="27.178mm" version="1.1" style="shape-rendering:geometricPrecision; text-rendering:geometricPrecision; image-rendering:optimizeQuality; fill-rule:evenodd; clip-rule:evenodd"
viewBox="0 0 851 854"
 xmlns:xlink="http://www.w3.org/1999/xlink">
 <defs>
  <style type="text/css">
   <![CDATA[
    .fil1 {fill:none}
    .fil0 {fill:white}
   ]]>
  </style>
 </defs>
 <g id="Layer_x0020_1">
  <metadata id="CorelCorpID_0Corel-Layer"/>
  <path class="fil0" d="M426 321l60 41 60 41 -119 0 -119 0 60 -41 60 -41zm177 318l-39 0 0 -118 0 -1 0 -3c0,-21 -17,-37 -37,-37 -21,0 -37,17 -37,37l0 3 0 1 0 118 -26 0 0 -118 0 -1 0 -3c0,-21 -17,-37 -37,-37 -21,0 -37,17 -37,37l0 3 0 1 0 118 -26 0 0 -118 0 -1 0 -3c0,-21 -17,-37 -37,-37 -21,0 -37,17 -37,37l0 3 0 1 0 118 -39 0 0 -216 355 0 0 216zm-174 -425l-7 0 0 1 0 86 -284 0c-3,0 -6,3 -6,6l0 98 0 11 0 0 0 211c0,6 5,11 11,11l91 0 0 -216 0 -15 37 0 67 -46 89 -61 89 61 67 46 37 0 0 15 0 216 91 0c6,0 11,-5 11,-11l0 -211 0 0 0 -11 0 -97c0,-4 -3,-6 -6,-6l-284 0 0 -50 53 0 0 -37 -53 0 0 1 0 -1z"/>
  <polygon class="fil1" points="0,0 851,0 851,854 0,854 "/>
 </g>
</svg>
