<?xml version="1.0" encoding="UTF-8"?>
<!DOCTYPE svg PUBLIC "-//W3C//DTD SVG 1.1//EN" "http://www.w3.org/Graphics/SVG/1.1/DTD/svg11.dtd">
<!-- Creator: CorelDRAW X7 -->
<svg xmlns="http://www.w3.org/2000/svg" xml:space="preserve" width="27.0932mm" height="27.178mm" version="1.1" style="shape-rendering:geometricPrecision; text-rendering:geometricPrecision; image-rendering:optimizeQuality; fill-rule:evenodd; clip-rule:evenodd"
viewBox="0 0 851 854"
 xmlns:xlink="http://www.w3.org/1999/xlink">
 <defs>
  <style type="text/css">
   <![CDATA[
    .fil1 {fill:none}
    .fil0 {fill:white}
   ]]>
  </style>
 </defs>
 <g id="Layer_x0020_1">
  <metadata id="CorelCorpID_0Corel-Layer"/>
  <g id="_2026834848160">
   <path class="fil0" d="M278 335c-3,0 -2,0 -4,1 0,19 8,14 11,27l5 13c2,4 6,9 6,12 0,12 -15,13 -29,17 -3,1 -4,1 -6,2 -3,1 -4,1 -6,2 -9,3 -8,3 -15,8 -9,6 -12,17 -11,27 1,15 -1,13 23,23 25,10 65,15 95,9 3,0 7,-1 9,-1l-3 -2c-2,-1 -3,-1 -4,-2 -16,-8 -14,-18 -14,-35 0,-16 7,-21 12,-28 -3,-5 -6,-9 -9,-14 -9,-14 -16,-36 -16,-53 0,-15 0,-20 3,-35 2,-7 6,-18 6,-21 -4,0 -1,0 -4,-1 -10,-4 -24,-3 -33,2 -7,4 -8,4 -13,10 -3,4 -5,11 -6,17 -1,13 1,11 1,20z"/>
   <path class="fil0" d="M397 335c-3,0 -2,0 -4,1 0,6 1,11 4,16 4,5 5,2 7,11 2,8 5,15 10,21 2,2 2,0 2,4 0,5 -2,7 -5,9 -2,1 -8,4 -11,4 6,8 30,11 41,11 8,0 20,-3 27,-6 3,-1 4,-3 8,-4l0 -2c-8,-1 -13,-5 -13,-13 0,-2 3,-3 6,-11 2,-4 3,-10 4,-14 2,-12 10,-4 10,-26l-3 0c0,-15 3,-30 -12,-41 -4,-2 -8,-3 -16,-7 -11,-5 -27,-5 -38,0 -24,12 -17,32 -17,48z"/>
   <path class="fil0" d="M440 424c-20,0 -44,-7 -58,-20 -1,-1 -2,-2 -3,-3 -2,-2 -2,-1 -4,-3 -6,-5 -14,-19 -18,-26 -11,-21 -11,-53 0,-75 4,-7 2,-6 8,-14 1,-2 1,-2 2,-3l8 -9c2,-2 4,-3 6,-5l20 -13c29,-14 64,-11 90,8l19 19c23,31 24,72 3,104 -12,18 -31,31 -52,36 -6,1 -12,3 -19,3zm-104 -96c0,20 1,33 10,51 17,34 51,58 88,58 13,0 17,0 30,-3 4,-1 6,-2 9,-3 4,-1 5,-3 9,-4 4,-1 4,-2 8,-4 3,-2 5,-3 8,-5l14 -11c4,-4 12,-14 16,-20 1,-2 1,-2 2,-4 14,-22 15,-57 7,-83 -1,-4 -2,-5 -4,-9 -4,-10 -15,-24 -23,-32l-7 -6c-15,-12 -38,-22 -58,-22 -35,0 -48,6 -71,23 -3,2 -4,3 -6,6 -16,16 -30,41 -30,66z"/>
   <path class="fil0" d="M542 284c1,7 23,41 3,94 -7,18 -8,12 2,15 14,4 27,21 39,33 4,4 40,41 41,41 0,0 17,-5 18,-13 10,-62 -66,-41 -66,-63 0,-7 1,-4 4,-8 3,-5 6,-14 7,-20 2,-11 10,-5 10,-26l-3 0c0,-16 3,-31 -13,-42 -3,-2 -4,-2 -8,-3 -3,-1 -5,-3 -8,-4 -16,-6 -19,-3 -28,-3z"/>
   <path class="fil0" d="M507 426l0 2c2,1 1,1 4,2 0,16 2,14 18,31l71 71c10,10 17,20 29,20 9,0 13,-7 18,-11 9,-9 19,-19 4,-34l-95 -95c-5,-5 -8,-6 -18,-6 -6,-2 -1,-10 -18,7 -3,3 -11,9 -11,14z"/>
   <path class="fil0" d="M455 213c-3,0 -2,0 -4,1l0 7c9,0 30,7 38,11 30,18 27,21 36,27 1,-3 1,-3 2,-5 1,-2 1,-4 2,-6 1,-4 2,-10 3,-13 1,-3 4,-2 7,-8 2,-4 2,-9 2,-14l-3 0c0,-18 3,-37 -20,-44 -6,-2 -23,-14 -45,-4 -7,3 -8,4 -13,10 -10,13 -5,27 -5,38z"/>
   <path class="fil0" d="M337 213c-3,0 -2,0 -4,1 0,17 7,17 10,22 1,2 1,3 1,6l7 16 14 -13c8,-7 20,-14 30,-17 9,-4 25,-6 27,-7l0 -7 -3 0 0 -21c0,-8 -6,-16 -13,-20l-15 -7c-17,-8 -54,-6 -56,32l2 16z"/>
   <path class="fil0" d="M349 435c0,22 -2,20 13,28 3,2 6,3 9,4l10 3c6,2 14,4 20,5l35 4 37 -3c10,-2 21,-4 31,-8 3,-1 6,-3 10,-3 -1,-4 -6,-7 -10,-12 -5,-6 -4,-9 -6,-17 -8,4 -15,8 -24,11 -22,7 -52,7 -74,-1 -3,-1 -7,-3 -10,-4l-17 -10c-3,-2 -5,-3 -7,-6 -5,-4 -5,-5 -9,-6 -1,3 -3,3 -5,7 -1,2 -2,6 -2,9z"/>
   <path class="fil0" d="M209 495l326 0c4,0 7,4 7,9l0 72c0,5 -3,9 -7,9l-326 0c-4,0 -7,-4 -7,-9 0,-5 3,-9 7,-9l8 0c3,2 6,3 9,3l304 0 0 -61 -304 0c-4,0 -7,1 -9,3l-8 0c-4,0 -7,-4 -7,-9 0,-5 3,-9 7,-9z"/>
   <path class="fil0" d="M174 621l482 0c6,0 11,5 11,11l0 32c0,6 -5,11 -11,11l-482 0 0 -55z"/>
   <path class="fil0" d="M226 513l301 0 0 55 -301 0c-6,0 -11,-5 -11,-11l0 -32c0,-6 5,-11 11,-11z"/>
   <path class="fil0" d="M689 603l-527 0c-7,0 -12,4 -12,9l0 72c0,5 5,9 12,9l527 0c7,0 12,-4 12,-9 0,-5 -5,-9 -12,-9l-24 0c-3,2 -6,3 -9,3l-485 0 0 -61 485 0c4,0 7,1 9,4l24 0c7,0 12,-4 12,-9 0,-5 -5,-9 -12,-9z"/>
  </g>
  <polygon class="fil1" points="0,0 851,0 851,854 0,854 "/>
 </g>
</svg>
