<?xml version="1.0" encoding="UTF-8"?>
<!DOCTYPE svg PUBLIC "-//W3C//DTD SVG 1.1//EN" "http://www.w3.org/Graphics/SVG/1.1/DTD/svg11.dtd">
<!-- Creator: CorelDRAW X7 -->
<svg xmlns="http://www.w3.org/2000/svg" xml:space="preserve" width="27.0932mm" height="27.178mm" version="1.1" style="shape-rendering:geometricPrecision; text-rendering:geometricPrecision; image-rendering:optimizeQuality; fill-rule:evenodd; clip-rule:evenodd"
viewBox="0 0 2374 2381"
 xmlns:xlink="http://www.w3.org/1999/xlink">
 <defs>
  <style type="text/css">
   <![CDATA[
    .fil1 {fill:none}
    .fil0 {fill:white}
   ]]>
  </style>
 </defs>
 <g id="Layer_x0020_1">
  <metadata id="CorelCorpID_0Corel-Layer"/>
  <path class="fil0" d="M971 718c26,-20 52,-49 73,-85 6,-5 35,-25 63,-16 20,6 37,26 49,61l0 525c-8,12 -28,37 -52,37l-1 0c-18,0 -35,-13 -52,-40 -3,-4 -9,-6 -13,-3 -4,2 -5,6 -4,11 -13,-6 -28,-16 -37,-31 -8,-15 -10,-32 -4,-52 2,-6 -1,-11 -6,-13l-3 0c-4,0 -8,2 -9,6 -1,5 -2,10 -4,14 -14,-13 -36,-46 -8,-118 2,-5 0,-11 -5,-13l-4 -1c-4,0 -8,2 -9,6 -6,13 -9,25 -11,36 -13,-11 -34,-44 -16,-124 1,-5 -2,-10 -7,-11l-2 0 -5 1c-6,-16 -11,-40 -4,-61 5,-17 16,-31 34,-41 5,-3 6,-8 4,-13 -1,-4 -5,-5 -8,-5l-4 1c-4,1 -7,4 -10,6 4,-19 15,-49 54,-78zm-74 220c-15,90 23,120 35,128 -5,59 28,84 39,90 1,11 4,21 10,30 20,35 67,47 74,49 15,16 32,24 49,24l1 0c30,0 59,-31 69,-45l0 -554c-13,-30 -38,-55 -61,-62 -7,-1 -13,-3 -20,-3 -33,1 -61,23 -62,24l-2 2c-21,35 -44,62 -70,81 -65,49 -64,102 -63,113 -6,8 -11,17 -13,28 -12,42 11,88 14,95zm188 252c0,0 -18,-9 -20,-25 -2,-13 6,-28 24,-44 4,-4 4,-10 1,-14l-7 -3c-3,0 -5,1 -7,2 -4,4 -8,8 -11,12 0,-3 0,-6 -2,-8 -1,-1 -36,-45 -11,-88l1 -2c1,-5 11,-45 1,-68 -1,-4 -5,-6 -8,-6l-4 1c-5,2 -7,8 -5,13 6,12 1,39 -3,54 -31,54 11,107 13,109 3,4 7,4 11,2 -11,15 -16,30 -14,44 4,26 30,40 30,40 5,2 11,0 13,-5 2,-4 1,-11 -4,-13zm-86 -429c18,1 40,6 47,22 7,17 -6,41 -13,50 -44,49 -46,90 -46,93 0,5 4,10 10,10 6,0 10,-4 10,-10 0,0 1,-36 40,-79 4,-4 8,-10 11,-18l6 -2c6,-4 22,-15 35,-13 5,1 9,4 12,9 4,4 9,6 13,3 5,-3 6,-9 4,-13 -6,-10 -16,-16 -26,-18l-6 0c-10,0 -20,4 -28,8 1,-9 1,-18 -3,-27 -8,-20 -30,-32 -64,-33l-1 0c-5,0 -9,4 -9,9 -1,5 4,10 9,10zm59 146c4,-1 9,0 15,4 4,4 10,2 13,-2 3,-4 2,-11 -3,-13 -8,-6 -16,-8 -22,-8 -4,0 -6,0 -9,1 -18,5 -28,26 -28,28 -13,32 -26,30 -27,30 -6,-1 -11,1 -12,6 -2,6 1,11 6,13 4,1 30,8 51,-42 2,-4 8,-15 16,-18zm40 83l-4 1c-5,2 -8,8 -6,13 26,61 2,153 2,154 -1,6 2,11 7,12 5,1 11,-1 12,-7 1,-4 25,-99 -3,-167 -1,-4 -5,-6 -9,-6zm-22 -262c-5,1 -9,6 -8,11 1,6 6,9 11,8 1,0 49,-8 61,-57 2,-5 -1,-11 -6,-12l-3 0c-4,0 -8,3 -9,7 -10,36 -44,42 -47,43zm-76 8c4,3 11,1 13,-3 18,-31 57,-78 82,-73 6,1 11,-2 12,-7 1,-6 -2,-11 -8,-12 -3,-1 -5,-1 -8,-1 -44,0 -90,73 -95,82 -3,5 -1,11 4,13zm-74 204c-4,4 -4,10 0,14 4,4 10,4 13,0 1,-1 25,-27 21,-95 2,-15 13,-54 35,-56 5,-1 9,-6 8,-11 -1,-5 -5,-8 -10,-8l-1 0c-40,5 -51,71 -51,73l-1 2c4,59 -15,80 -15,80zm477 -222c-27,-20 -52,-49 -74,-85 -6,-5 -35,-25 -63,-16 -20,6 -37,26 -49,61l0 525c8,12 28,37 52,37l1 0c18,0 35,-13 52,-40 3,-4 9,-6 13,-3 4,2 5,6 4,11 13,-6 28,-16 37,-31 8,-15 9,-32 3,-52 -2,-6 1,-11 6,-13l3 0c4,0 8,2 9,6 1,5 2,10 4,14 14,-13 36,-46 8,-118 -2,-5 0,-11 5,-13l4 -1c4,0 7,2 8,6 6,13 9,25 11,36 13,-11 34,-44 16,-124 -1,-5 2,-10 7,-11l3 0 4 1c6,-16 11,-40 5,-61 -5,-17 -17,-31 -35,-41 -5,-3 -6,-8 -4,-13 1,-4 5,-5 8,-5l5 1c4,1 6,4 9,6 -3,-19 -15,-49 -54,-78zm73 220c15,90 -23,120 -35,128 5,59 -28,84 -39,90 -1,11 -4,21 -10,30 -20,35 -67,47 -74,49 -15,16 -31,24 -49,24l-1 0c-30,0 -59,-31 -69,-45l0 -554c13,-30 38,-55 61,-62 6,-1 13,-3 19,-3 33,1 61,23 62,24l2 2c21,35 45,62 70,81 65,49 64,102 63,113 6,8 11,17 13,28 12,42 -11,88 -14,95zm-188 252c1,0 18,-9 20,-25 2,-13 -6,-28 -24,-44 -4,-4 -4,-10 -1,-14l7 -3c3,0 5,1 7,2 4,4 8,8 11,12 -1,-3 -1,-6 1,-8 1,-1 36,-45 11,-88l-1 -2c-1,-5 -12,-45 -2,-68 1,-4 5,-6 9,-6l4 1c5,2 7,8 5,13 -5,12 -1,39 3,54 31,54 -11,107 -13,109 -3,4 -7,4 -11,2 11,15 16,30 14,44 -4,26 -30,40 -30,40 -5,2 -11,0 -13,-5 -2,-4 0,-11 4,-13zm87 -429c-18,1 -41,6 -48,22 -7,17 6,41 13,50 44,49 46,90 46,93 0,5 -4,10 -10,10 -5,0 -10,-4 -10,-10 0,0 -1,-36 -40,-79 -4,-4 -8,-10 -11,-18l-6 -2c-6,-4 -22,-15 -35,-13 -5,1 -8,4 -12,9 -3,4 -9,6 -13,3 -5,-3 -6,-9 -3,-13 6,-10 15,-16 25,-18l6 0c11,0 20,4 28,8 -1,-9 -1,-18 3,-27 8,-20 30,-32 64,-33l1 0c5,0 9,4 10,9 0,5 -4,10 -9,10zm-60 146c-4,-1 -9,0 -14,4 -5,4 -11,2 -14,-2 -3,-4 -1,-11 3,-13 8,-6 16,-8 22,-8 4,0 6,0 9,1 18,5 28,26 29,28 13,32 25,30 27,30 5,-1 10,1 11,6 2,6 -1,11 -6,13 -4,1 -30,8 -51,-42 -1,-4 -8,-15 -16,-18zm-40 83l4 1c5,2 8,8 6,13 -25,61 -2,153 -2,154 1,6 -1,11 -7,12 -5,1 -11,-1 -12,-7 -1,-4 -25,-99 3,-167 1,-4 6,-6 9,-6zm22 -262c6,1 9,6 8,11 -1,6 -6,9 -11,8 -2,0 -49,-8 -62,-57 -1,-5 1,-11 6,-12l3 0c4,0 8,3 9,7 10,36 45,42 47,43zm76 8c-4,3 -11,1 -13,-3 -18,-31 -57,-78 -82,-73 -6,1 -11,-2 -12,-7 -1,-6 2,-11 8,-12 3,-1 6,-1 8,-1 44,0 90,73 95,82 3,5 1,11 -4,13zm74 204c4,4 4,10 0,14 -4,4 -10,4 -13,0 -1,-1 -25,-27 -21,-95 -2,-15 -13,-54 -35,-56 -5,-1 -9,-6 -8,-11 1,-5 5,-8 10,-8l1 0c41,5 51,71 52,73l0 2c-4,59 15,80 15,80zm-161 -9c5,1 9,6 8,11 -1,6 -6,9 -11,8 -9,-1 -40,-3 -44,11 -1,5 -6,8 -12,6 -5,-1 -8,-6 -6,-12 6,-22 32,-26 49,-26 8,0 13,1 16,1zm-205 955c8,52 52,91 105,91 54,0 97,-40 105,-91 70,-4 126,-61 126,-133l-462 0c0,71 56,129 126,133zm107 -1353c215,0 390,174 390,390 0,215 -174,390 -390,390 -216,0 -390,-174 -390,-390 0,-216 174,-390 390,-390zm503 375c0,-278 -225,-504 -503,-504 -278,0 -504,226 -504,504 0,117 40,225 108,311 59,75 115,157 164,239l0 266 462 0 0 -261c48,-80 110,-173 166,-244 68,-86 108,-193 108,-311zm-603 24c-5,1 -8,6 -8,11 1,6 6,9 11,8 9,-1 40,-3 44,11 1,5 6,8 12,6 5,-1 8,-6 7,-12 -6,-22 -33,-26 -50,-26 -8,0 -13,1 -16,1z"/>
  <polygon class="fil1" points="0,0 2374,0 2374,2381 0,2381 "/>
 </g>
</svg>
