<?xml version="1.0" encoding="UTF-8"?>
<!DOCTYPE svg PUBLIC "-//W3C//DTD SVG 1.1//EN" "http://www.w3.org/Graphics/SVG/1.1/DTD/svg11.dtd">
<!-- Creator: CorelDRAW X7 -->
<svg xmlns="http://www.w3.org/2000/svg" xml:space="preserve" width="27.0932mm" height="27.178mm" version="1.1" style="shape-rendering:geometricPrecision; text-rendering:geometricPrecision; image-rendering:optimizeQuality; fill-rule:evenodd; clip-rule:evenodd"
viewBox="0 0 476 477"
 xmlns:xlink="http://www.w3.org/1999/xlink">
 <defs>
  <style type="text/css">
   <![CDATA[
    .fil1 {fill:none}
    .fil0 {fill:white}
   ]]>
  </style>
 </defs>
 <g id="Layer_x0020_1">
  <metadata id="CorelCorpID_0Corel-Layer"/>
  <path class="fil0" d="M264 210l-15 0 -9 -13 -5 5 -10 3 -12 13 -13 -1 6 3 -1 2 -24 3 -14 -8 -20 0 -6 16 -6 10 -6 3 -1 -9 -2 7c8,14 20,27 35,36l-7 13 -3 6 -4 7c54,31 122,19 162,-26 -4,-3 -7,-7 -9,-12 -34,41 -92,53 -140,28l7 -13c47,25 106,8 133,-38 2,-4 4,-7 6,-11l-11 -5c0,0 -13,-13 -14,-13l-16 -4zm-141 -38l4 -3 1 -6 6 0 -4 14 -7 4c0,0 0,-8 -1,-8zm14 -26l0 -12 7 -4 1 12 -4 8 -4 2 0 -7zm-14 69l7 -16 0 -9 7 -7 7 -13 -4 -8 5 -6 8 -16 -2 -7 -1 -8 6 -8 1 -3c-12,8 -22,19 -30,32 -16,27 -17,58 -7,85l3 -14zm203 22c-11,0 -19,9 -19,19 0,9 5,16 13,18l0 79 -162 0c-6,0 -11,5 -11,11l0 21c0,6 5,11 11,11l194 0c6,0 11,-5 11,-11l0 -21c0,-6 -5,-11 -11,-11l-15 0 0 -81c5,-3 9,-10 9,-16 0,-11 -9,-19 -20,-19zm-50 -156c53,31 76,93 59,149 -3,-1 -6,-1 -9,-1 -2,0 -4,0 -6,0 16,-49 -2,-103 -47,-132l-8 13c39,24 55,71 43,113l-5 -5 -1 -21 -8 -10 1 -13 -13 -20 -17 10 -13 3 -3 4 -8 8 -6 7 -2 8 -7 1 -4 3 -6 -4 -3 5 2 5 -8 -2 1 -8 7 -5 2 -4 -5 -5 -6 -17 1 -19 6 -8 -4 -3 -16 4 -10 -1 -3 6 -4 2 -6 7 8 7 -7 8 -6 -3 2 -8 -9 -8 7 -5 4 3 5 -4 3 -3 0 -6 -7 1 -12 4 -4 -2 6 -7 10 -3 7 1 6 1 16 -5 3 -2 -4 -7 7 -14 1 -3c18,-1 37,3 55,12l8 -13 1 -2 6 -11z"/>
  <polygon class="fil1" points="0,0 476,0 476,477 0,477 "/>
 </g>
</svg>
